<svg width="144" height="144" viewBox="0 0 144 144" fill="none" xmlns="http://www.w3.org/2000/svg">
<path d="M71.9849 144C111.741 144 143.97 111.765 143.97 72C143.97 32.2355 111.741 0 71.9849 0C32.2287 0 0 32.2355 0 72C0 111.765 32.2287 144 71.9849 144Z" fill="#F7931A"/>
<path fill-rule="evenodd" clip-rule="evenodd" d="M87.4415 41.4209C97.4243 45.0836 104.615 50.5102 102.966 60.9232C101.719 68.5034 97.7468 72.2081 92.3789 73.5156C99.5219 77.5138 102.96 83.5826 99.2822 94.2278C94.7083 107.579 84.4706 108.79 70.9103 106.204L67.4194 120.294L59.5404 118.341L63.0313 104.251C62.174 104.023 61.2705 103.812 60.3438 103.596C59.1056 103.308 57.826 103.01 56.5598 102.647L53.0689 116.738L45.2043 114.789L48.6952 100.698L33.0287 96.431L36.9227 86.4677C36.9227 86.4677 42.836 88.0942 42.7442 87.9919C44.9375 88.5254 46.0099 86.9933 46.4492 85.9205L52.0397 63.3313L56.1084 47.2761C56.2842 45.5407 55.7406 43.2703 52.5361 42.4066C52.7542 42.2788 46.7672 40.9769 46.7672 40.9769L49.1002 31.5347L65.2469 35.5363L68.6663 21.7341L76.8006 23.7501L73.3814 37.5523C74.9629 37.8963 76.5084 38.2959 78.0705 38.7001L78.0712 38.7002C78.5837 38.8328 79.0984 38.9659 79.6167 39.0977L83.036 25.2954L90.9507 27.2569L87.4415 41.4209ZM65.8566 63.6146C65.9796 63.6513 66.1113 63.6909 66.2512 63.7329C70.9814 65.1545 85.0069 69.3694 87.3695 59.9846C89.5693 51.064 77.4183 48.3393 71.7724 47.0732C71.1055 46.9237 70.5294 46.7945 70.0784 46.6779L65.8566 63.6146ZM59.6323 91.44C59.3837 91.3658 59.1546 91.2982 58.9469 91.237L63.1687 74.3004C63.6676 74.43 64.2985 74.5783 65.0282 74.7497C71.6837 76.3135 86.5496 79.807 84.2388 88.7774C81.9965 98.0921 65.4597 93.1738 59.6323 91.44Z" fill="white"/>
</svg>
